# xmcd
#
# Track frame offsets:
#	150
#	17029
#	33081
#	48578
#	64821
#	79120
#	93077
#	113547
#	128946
#	141835
#	158142
#	174094
#
# Disc length: 2540 seconds
#
# Revision: 3
# Processed by: cddbd v1.5.2PL0 Copyright (c) Steve Scherf et al.
# Submitted via: EasyCDDAExtractor 15.3.0.1
#
DISCID=8d09ea0c
DTITLE=Alex Ubago - Calle Ilusion
DYEAR=2009
DGENRE=Latin
TTITLE0=Amarrado A Ti
TTITLE1=Me Arrepiento
TTITLE2=Amsterdam
TTITLE3=20 Horas De Nada
TTITLE4=Calle Ilusion
TTITLE5=Ciudad Desierta
TTITLE6=No Estas Sola
TTITLE7=Demasiado Amor
TTITLE8=Mil Horas
TTITLE9=Cerca De Mi
TTITLE10=Como Si Fuera El Ultimo
TTITLE11=Walking Away (Con Craig David) (Bonus Track)
EXTD=YEAR: 2009
EXTT0=
EXTT1=
EXTT2=
EXTT3=
EXTT4=
EXTT5=
EXTT6=
EXTT7=
EXTT8=
EXTT9=
EXTT10=
EXTT11=
PLAYORDER=
